<svg xmlns="http://www.w3.org/2000/svg" viewBox="0 0 64 80" x="0px" y="0px"><title>power, logout, close, exit, interface icon
</title><g data-name="Layer 1"><path d="M32,60a25.67,25.67,0,0,0,9.87-49.36,2,2,0,1,0-1.54,3.69,21.66,21.66,0,1,1-16.66,0,2,2,0,1,0-1.54-3.69A25.67,25.67,0,0,0,32,60Z"/><path d="M30,6V32a2,2,0,0,0,4,0V6a2,2,0,0,0-4,0Z"/></g><text x="0" y="79" fill="#000000" font-size="5px" font-weight="bold" font-family="'Helvetica Neue', Helvetica, Arial-Unicode, Arial, Sans-serif">Created by Dika Darma</text><text x="0" y="84" fill="#000000" font-size="5px" font-weight="bold" font-family="'Helvetica Neue', Helvetica, Arial-Unicode, Arial, Sans-serif">from the Noun Project</text></svg>